<svg width="560" height="265" viewBox="0 0 560 265" fill="none" xmlns="http://www.w3.org/2000/svg">
<line x1="167.666" y1="177.322" x2="392.333" y2="177.322" stroke="#EBEBEB" stroke-width="2" stroke-linecap="round"/>
<rect width="29.2968" height="100.508" rx="4" transform="matrix(0.971112 -0.23931 0.279771 0.960261 184.658 33.125)" fill="#FFAB00"/>
<path d="M210.68 120.818L214.169 119.945" stroke="#C28200" stroke-width="2" stroke-miterlimit="16" stroke-linecap="round"/>
<path d="M208.75 114.09L216.511 112.147" stroke="#C28200" stroke-width="2" stroke-miterlimit="16" stroke-linecap="round"/>
<path d="M206.82 107.359L210.31 106.486" stroke="#C28200" stroke-width="2" stroke-miterlimit="16" stroke-linecap="round"/>
<path d="M204.891 100.631L212.651 98.6875" stroke="#C28200" stroke-width="2" stroke-miterlimit="16" stroke-linecap="round"/>
<path d="M202.961 93.9023L206.45 93.0286" stroke="#C28200" stroke-width="2" stroke-miterlimit="16" stroke-linecap="round"/>
<path d="M201.031 87.1719L208.792 85.2285" stroke="#C28200" stroke-width="2" stroke-miterlimit="16" stroke-linecap="round"/>
<path d="M199.104 80.4434L202.593 79.5696" stroke="#C28200" stroke-width="2" stroke-miterlimit="16" stroke-linecap="round"/>
<path d="M197.174 73.7129L204.935 71.7696" stroke="#C28200" stroke-width="2" stroke-miterlimit="16" stroke-linecap="round"/>
<path d="M195.244 66.9844L198.734 66.1106" stroke="#C28200" stroke-width="2" stroke-miterlimit="16" stroke-linecap="round"/>
<path d="M193.314 60.2559L201.075 58.3125" stroke="#C28200" stroke-width="2" stroke-miterlimit="16" stroke-linecap="round"/>
<path d="M191.385 53.5254L194.874 52.6516" stroke="#C28200" stroke-width="2" stroke-miterlimit="16" stroke-linecap="round"/>
<path d="M189.455 46.7969L197.216 44.8535" stroke="#C28200" stroke-width="2" stroke-miterlimit="16" stroke-linecap="round"/>
<path d="M187.525 40.0664L191.015 39.1927" stroke="#C28200" stroke-width="2" stroke-miterlimit="16" stroke-linecap="round"/>
<rect width="126.74" height="108.294" rx="4" transform="matrix(0.993686 0.113871 -0.149584 0.988983 223.441 21.1602)" fill="#6BDEEF"/>
<rect width="109.758" height="100.994" rx="4" transform="matrix(0.993686 0.113866 -0.14959 0.988982 230.84 29.2637)" fill="white"/>
<circle cx="2" cy="2" r="2" transform="matrix(0.99279 0.120025 -0.141917 0.989899 231.074 35.6953)" fill="#6BDEEF"/>
<circle cx="2" cy="2" r="2" transform="matrix(0.99279 0.120025 -0.141917 0.989899 229.371 47.5742)" fill="#6BDEEF"/>
<circle cx="2" cy="2" r="2" transform="matrix(0.99279 0.120025 -0.141917 0.989899 227.668 59.4531)" fill="#6BDEEF"/>
<circle cx="2" cy="2" r="2" transform="matrix(0.99279 0.120025 -0.141917 0.989899 225.965 71.332)" fill="#6BDEEF"/>
<circle cx="2" cy="2" r="2" transform="matrix(0.99279 0.120025 -0.141917 0.989899 224.262 83.2109)" fill="#6BDEEF"/>
<circle cx="2" cy="2" r="2" transform="matrix(0.99279 0.120025 -0.141917 0.989899 222.559 95.0898)" fill="#6BDEEF"/>
<circle cx="2" cy="2" r="2" transform="matrix(0.99279 0.120025 -0.141917 0.989899 220.855 106.969)" fill="#6BDEEF"/>
<circle cx="2" cy="2" r="2" transform="matrix(0.99279 0.120025 -0.141917 0.989899 219.152 118.848)" fill="#6BDEEF"/>
<path d="M228.818 41.6016L338.178 54.1414" stroke="#DBDBDB" stroke-width="2" stroke-miterlimit="16" stroke-linecap="square"/>
<path d="M227.025 53.4688L336.385 66.0085" stroke="#DBDBDB" stroke-width="2" stroke-miterlimit="16" stroke-linecap="square"/>
<path d="M225.23 65.3379L334.59 77.8777" stroke="#DBDBDB" stroke-width="2" stroke-miterlimit="16" stroke-linecap="square"/>
<path d="M223.438 77.2051L332.797 89.7449" stroke="#DBDBDB" stroke-width="2" stroke-miterlimit="16" stroke-linecap="square"/>
<path d="M221.643 89.0742L331.002 101.614" stroke="#DBDBDB" stroke-width="2" stroke-miterlimit="16" stroke-linecap="square"/>
<path d="M219.85 100.941L329.209 113.481" stroke="#DBDBDB" stroke-width="2" stroke-miterlimit="16" stroke-linecap="square"/>
<path d="M218.055 112.809L327.415 125.348" stroke="#DBDBDB" stroke-width="2" stroke-miterlimit="16" stroke-linecap="square"/>
<path d="M216.262 124.678L325.622 137.218" stroke="#DBDBDB" stroke-width="2" stroke-miterlimit="16" stroke-linecap="square"/>
<path d="M231.613 37.5254L226.659 36.9311" stroke="#008392" stroke-width="2" stroke-miterlimit="16" stroke-linecap="round"/>
<path d="M229.896 49.4023L224.942 48.8081" stroke="#008392" stroke-width="2" stroke-miterlimit="16" stroke-linecap="round"/>
<path d="M228.18 61.2793L223.225 60.685" stroke="#008392" stroke-width="2" stroke-miterlimit="16" stroke-linecap="round"/>
<path d="M226.465 73.1562L221.51 72.562" stroke="#008392" stroke-width="2" stroke-miterlimit="16" stroke-linecap="round"/>
<path d="M224.748 85.0352L219.793 84.4409" stroke="#008392" stroke-width="2" stroke-miterlimit="16" stroke-linecap="round"/>
<path d="M223.031 96.9121L218.077 96.3178" stroke="#008392" stroke-width="2" stroke-miterlimit="16" stroke-linecap="round"/>
<path d="M221.314 108.789L216.36 108.195" stroke="#008392" stroke-width="2" stroke-miterlimit="16" stroke-linecap="round"/>
<path d="M219.6 120.666L214.645 120.072" stroke="#008392" stroke-width="2" stroke-miterlimit="16" stroke-linecap="round"/>
<path d="M329.623 59.6426L366.114 50.4401L362.774 55.8834L368.558 59.0261L332.067 68.2286L329.623 59.6426Z" fill="#FEC3CE"/>
<rect width="37.633" height="114.268" rx="4" transform="matrix(0.969641 0.244531 -0.273816 0.961782 326.762 14.748)" fill="#A3A3F5"/>
<rect width="37.633" height="8.92719" transform="matrix(0.969641 0.244531 -0.273816 0.961782 318.205 44.7988)" fill="#FF8DA6"/>
<path d="M352.305 21.1895L359.373 22.9721C361.515 23.5123 362.761 25.6726 362.157 27.7973L333.059 130.004C332.454 132.129 330.227 133.413 328.085 132.873L321.016 131.09L352.305 21.1895Z" fill="#8888F2"/>
<rect width="11.2899" height="8.92719" transform="matrix(0.969641 0.244531 -0.273816 0.961782 343.748 51.2422)" fill="#F76E88"/>
<path d="M189.332 76.9883H295.11V176.544H197.332C192.914 176.544 189.332 172.962 189.332 168.544V76.9883Z" fill="#FFDF99"/>
<path d="M189.333 76.9883H295.11L272.444 98.3216H166.666L189.333 76.9883Z" fill="#FFEDC1"/>
<rect x="295.111" y="76.9883" width="75.5556" height="99.5556" fill="#FFCC66"/>
<path d="M370.665 76.9883H295.11L317.776 98.3216H393.332L370.665 76.9883Z" fill="#FFDF99"/>
<rect x="311.166" y="165.879" width="59.5" height="10.6667" fill="#26C7D9"/>
<path d="M370.667 165.879V176.546L382 171.212L370.667 165.879Z" fill="#FFEDC1"/>
<path d="M376.333 173.878L382 171.212L376.333 168.545V173.878Z" fill="#222222"/>
<rect width="2.83334" height="10.6667" transform="matrix(-1 0 0 1 311.166 165.879)" fill="white"/>
<path d="M302.666 168.879C302.666 167.222 304.009 165.879 305.666 165.879H308.333V176.546H305.666C304.009 176.546 302.666 175.202 302.666 173.546V168.879Z" fill="#F76E88"/>
<rect x="311.166" y="173.879" width="59.5" height="2.66667" fill="#05B2C7"/>
<path d="M185.097 226.545L179.967 218.211H179.913L179.985 226.545H176.997V213.801H180.507L185.619 222.117H185.673L185.601 213.801H188.589V226.545H185.097ZM200.559 222.027C200.559 222.759 200.427 223.425 200.163 224.025C199.899 224.613 199.539 225.117 199.083 225.537C198.627 225.945 198.099 226.263 197.499 226.491C196.899 226.719 196.257 226.833 195.573 226.833C194.901 226.833 194.259 226.719 193.647 226.491C193.047 226.263 192.519 225.945 192.063 225.537C191.619 225.117 191.265 224.613 191.001 224.025C190.737 223.425 190.605 222.759 190.605 222.027C190.605 221.295 190.737 220.635 191.001 220.047C191.265 219.459 191.619 218.961 192.063 218.553C192.519 218.145 193.047 217.833 193.647 217.617C194.259 217.401 194.901 217.293 195.573 217.293C196.257 217.293 196.899 217.401 197.499 217.617C198.099 217.833 198.627 218.145 199.083 218.553C199.539 218.961 199.899 219.459 200.163 220.047C200.427 220.635 200.559 221.295 200.559 222.027ZM197.715 222.027C197.715 221.739 197.667 221.457 197.571 221.181C197.475 220.905 197.337 220.665 197.157 220.461C196.977 220.245 196.755 220.071 196.491 219.939C196.227 219.807 195.921 219.741 195.573 219.741C195.225 219.741 194.919 219.807 194.655 219.939C194.391 220.071 194.169 220.245 193.989 220.461C193.821 220.665 193.689 220.905 193.593 221.181C193.509 221.457 193.467 221.739 193.467 222.027C193.467 222.315 193.509 222.597 193.593 222.873C193.689 223.149 193.827 223.401 194.007 223.629C194.187 223.845 194.409 224.019 194.673 224.151C194.937 224.283 195.243 224.349 195.591 224.349C195.939 224.349 196.245 224.283 196.509 224.151C196.773 224.019 196.995 223.845 197.175 223.629C197.355 223.401 197.487 223.149 197.571 222.873C197.667 222.597 197.715 222.315 197.715 222.027ZM205.632 219.795V223.215C205.632 223.635 205.71 223.953 205.866 224.169C206.034 224.373 206.328 224.475 206.748 224.475C206.892 224.475 207.042 224.463 207.198 224.439C207.366 224.415 207.504 224.379 207.612 224.331L207.648 226.491C207.444 226.563 207.186 226.623 206.874 226.671C206.562 226.731 206.25 226.761 205.938 226.761C205.338 226.761 204.834 226.689 204.426 226.545C204.018 226.389 203.688 226.173 203.436 225.897C203.196 225.609 203.022 225.273 202.914 224.889C202.806 224.493 202.752 224.055 202.752 223.575V219.795H201.312V217.581H202.734V215.223H205.632V217.581H207.738V219.795H205.632ZM215.03 226.545V221.685C215.03 221.433 215.012 221.193 214.976 220.965C214.94 220.737 214.868 220.539 214.76 220.371C214.664 220.191 214.532 220.053 214.364 219.957C214.196 219.849 213.98 219.795 213.716 219.795C213.2 219.795 212.804 219.981 212.528 220.353C212.252 220.713 212.114 221.163 212.114 221.703V226.545H209.162V212.937H212.114V218.715H212.15C212.354 218.355 212.678 218.037 213.122 217.761C213.566 217.473 214.1 217.329 214.724 217.329C215.336 217.329 215.846 217.437 216.254 217.653C216.674 217.869 217.01 218.151 217.262 218.499C217.526 218.835 217.712 219.225 217.82 219.669C217.94 220.113 218 220.557 218 221.001V226.545H215.03ZM223.439 214.719C223.439 214.947 223.391 215.163 223.295 215.367C223.211 215.559 223.091 215.727 222.935 215.871C222.791 216.015 222.611 216.129 222.395 216.213C222.191 216.297 221.975 216.339 221.747 216.339C221.267 216.339 220.865 216.183 220.541 215.871C220.217 215.547 220.055 215.163 220.055 214.719C220.055 214.503 220.097 214.299 220.181 214.107C220.265 213.903 220.385 213.729 220.541 213.585C220.697 213.441 220.877 213.327 221.081 213.243C221.285 213.147 221.507 213.099 221.747 213.099C221.975 213.099 222.191 213.141 222.395 213.225C222.611 213.309 222.791 213.423 222.935 213.567C223.091 213.711 223.211 213.885 223.295 214.089C223.391 214.281 223.439 214.491 223.439 214.719ZM220.271 226.545V217.581H223.223V226.545H220.271ZM231.447 226.545V221.649C231.447 221.397 231.423 221.157 231.375 220.929C231.339 220.701 231.273 220.503 231.177 220.335C231.081 220.155 230.943 220.017 230.763 219.921C230.595 219.813 230.379 219.759 230.115 219.759C229.851 219.759 229.617 219.813 229.413 219.921C229.221 220.017 229.059 220.155 228.927 220.335C228.795 220.515 228.693 220.725 228.621 220.965C228.561 221.193 228.531 221.433 228.531 221.685V226.545H225.561V217.581H228.423V218.823H228.459C228.567 218.631 228.705 218.445 228.873 218.265C229.053 218.073 229.257 217.911 229.485 217.779C229.725 217.647 229.983 217.539 230.259 217.455C230.535 217.371 230.829 217.329 231.141 217.329C231.741 217.329 232.251 217.437 232.671 217.653C233.091 217.869 233.427 218.151 233.679 218.499C233.943 218.835 234.129 219.225 234.237 219.669C234.357 220.113 234.417 220.557 234.417 221.001V226.545H231.447ZM246.157 225.699C246.157 226.575 246.031 227.337 245.779 227.985C245.527 228.633 245.173 229.167 244.717 229.587C244.261 230.019 243.703 230.337 243.043 230.541C242.395 230.757 241.675 230.865 240.883 230.865C240.091 230.865 239.275 230.745 238.435 230.505C237.607 230.265 236.887 229.917 236.275 229.461L237.751 227.355C238.183 227.739 238.657 228.021 239.173 228.201C239.701 228.393 240.217 228.489 240.721 228.489C241.585 228.489 242.221 228.261 242.629 227.805C243.049 227.349 243.259 226.743 243.259 225.987V225.447H243.205C242.929 225.807 242.557 226.095 242.089 226.311C241.621 226.527 241.087 226.635 240.487 226.635C239.803 226.635 239.197 226.515 238.669 226.275C238.141 226.023 237.691 225.687 237.319 225.267C236.959 224.847 236.683 224.361 236.491 223.809C236.299 223.245 236.203 222.651 236.203 222.027C236.203 221.403 236.299 220.809 236.491 220.245C236.683 219.681 236.959 219.183 237.319 218.751C237.691 218.319 238.141 217.977 238.669 217.725C239.197 217.461 239.797 217.329 240.469 217.329C241.033 217.329 241.573 217.443 242.089 217.671C242.605 217.899 243.019 218.253 243.331 218.733H243.367V217.581H246.157V225.699ZM243.349 222.009C243.349 221.709 243.295 221.421 243.187 221.145C243.091 220.869 242.947 220.629 242.755 220.425C242.563 220.209 242.335 220.041 242.071 219.921C241.807 219.801 241.507 219.741 241.171 219.741C240.835 219.741 240.535 219.801 240.271 219.921C240.019 220.041 239.803 220.203 239.623 220.407C239.443 220.611 239.305 220.851 239.209 221.127C239.113 221.403 239.065 221.697 239.065 222.009C239.065 222.309 239.113 222.597 239.209 222.873C239.305 223.149 239.443 223.395 239.623 223.611C239.803 223.815 240.019 223.983 240.271 224.115C240.535 224.235 240.835 224.295 241.171 224.295C241.507 224.295 241.807 224.235 242.071 224.115C242.347 223.983 242.575 223.815 242.755 223.611C242.947 223.407 243.091 223.167 243.187 222.891C243.295 222.615 243.349 222.321 243.349 222.009ZM258.293 222.639H257.915C257.591 222.639 257.261 222.657 256.925 222.693C256.601 222.717 256.307 222.771 256.043 222.855C255.791 222.939 255.581 223.065 255.413 223.233C255.245 223.389 255.161 223.599 255.161 223.863C255.161 224.031 255.197 224.175 255.269 224.295C255.353 224.415 255.455 224.511 255.575 224.583C255.695 224.655 255.833 224.709 255.989 224.745C256.145 224.769 256.295 224.781 256.439 224.781C257.039 224.781 257.495 224.619 257.807 224.295C258.131 223.959 258.293 223.509 258.293 222.945V222.639ZM252.875 218.805C253.403 218.301 254.015 217.923 254.711 217.671C255.419 217.419 256.139 217.293 256.871 217.293C257.627 217.293 258.263 217.389 258.779 217.581C259.307 217.761 259.733 218.049 260.057 218.445C260.381 218.829 260.615 219.321 260.759 219.921C260.915 220.509 260.993 221.211 260.993 222.027V226.545H258.293V225.591H258.239C258.011 225.963 257.663 226.251 257.195 226.455C256.739 226.659 256.241 226.761 255.701 226.761C255.341 226.761 254.969 226.713 254.585 226.617C254.201 226.521 253.847 226.365 253.523 226.149C253.211 225.933 252.953 225.645 252.749 225.285C252.545 224.925 252.443 224.481 252.443 223.953C252.443 223.305 252.617 222.783 252.965 222.387C253.325 221.991 253.781 221.685 254.333 221.469C254.897 221.253 255.521 221.109 256.205 221.037C256.889 220.965 257.555 220.929 258.203 220.929V220.785C258.203 220.341 258.047 220.017 257.735 219.813C257.423 219.597 257.039 219.489 256.583 219.489C256.163 219.489 255.755 219.579 255.359 219.759C254.975 219.939 254.645 220.155 254.369 220.407L252.875 218.805ZM269.982 226.545V225.375H269.946C269.658 225.831 269.244 226.185 268.704 226.437C268.176 226.677 267.612 226.797 267.012 226.797C266.34 226.797 265.74 226.665 265.212 226.401C264.684 226.137 264.234 225.789 263.862 225.357C263.502 224.913 263.226 224.403 263.034 223.827C262.842 223.251 262.746 222.651 262.746 222.027C262.746 221.403 262.842 220.809 263.034 220.245C263.238 219.669 263.52 219.165 263.88 218.733C264.252 218.301 264.696 217.959 265.212 217.707C265.74 217.455 266.328 217.329 266.976 217.329C267.636 217.329 268.194 217.455 268.65 217.707C269.106 217.959 269.46 218.235 269.712 218.535H269.748V212.937H272.7V226.545H269.982ZM269.874 222.045C269.874 221.757 269.82 221.475 269.712 221.199C269.616 220.923 269.472 220.677 269.28 220.461C269.1 220.245 268.878 220.071 268.614 219.939C268.35 219.807 268.05 219.741 267.714 219.741C267.366 219.741 267.06 219.807 266.796 219.939C266.532 220.071 266.31 220.245 266.13 220.461C265.95 220.665 265.812 220.905 265.716 221.181C265.632 221.457 265.59 221.739 265.59 222.027C265.59 222.315 265.632 222.603 265.716 222.891C265.812 223.167 265.95 223.413 266.13 223.629C266.31 223.845 266.532 224.019 266.796 224.151C267.06 224.283 267.366 224.349 267.714 224.349C268.05 224.349 268.35 224.283 268.614 224.151C268.878 224.019 269.1 223.845 269.28 223.629C269.472 223.413 269.616 223.167 269.712 222.891C269.82 222.615 269.874 222.333 269.874 222.045ZM281.83 226.545V225.375H281.794C281.506 225.831 281.092 226.185 280.552 226.437C280.024 226.677 279.46 226.797 278.86 226.797C278.188 226.797 277.588 226.665 277.06 226.401C276.532 226.137 276.082 225.789 275.71 225.357C275.35 224.913 275.074 224.403 274.882 223.827C274.69 223.251 274.594 222.651 274.594 222.027C274.594 221.403 274.69 220.809 274.882 220.245C275.086 219.669 275.368 219.165 275.728 218.733C276.1 218.301 276.544 217.959 277.06 217.707C277.588 217.455 278.176 217.329 278.824 217.329C279.484 217.329 280.042 217.455 280.498 217.707C280.954 217.959 281.308 218.235 281.56 218.535H281.596V212.937H284.548V226.545H281.83ZM281.722 222.045C281.722 221.757 281.668 221.475 281.56 221.199C281.464 220.923 281.32 220.677 281.128 220.461C280.948 220.245 280.726 220.071 280.462 219.939C280.198 219.807 279.898 219.741 279.562 219.741C279.214 219.741 278.908 219.807 278.644 219.939C278.38 220.071 278.158 220.245 277.978 220.461C277.798 220.665 277.66 220.905 277.564 221.181C277.48 221.457 277.438 221.739 277.438 222.027C277.438 222.315 277.48 222.603 277.564 222.891C277.66 223.167 277.798 223.413 277.978 223.629C278.158 223.845 278.38 224.019 278.644 224.151C278.908 224.283 279.214 224.349 279.562 224.349C279.898 224.349 280.198 224.283 280.462 224.151C280.726 224.019 280.948 223.845 281.128 223.629C281.32 223.413 281.464 223.167 281.56 222.891C281.668 222.615 281.722 222.333 281.722 222.045ZM293.065 221.037C293.065 220.569 292.915 220.167 292.615 219.831C292.327 219.495 291.889 219.327 291.301 219.327C291.013 219.327 290.749 219.375 290.509 219.471C290.269 219.555 290.059 219.675 289.879 219.831C289.699 219.987 289.555 220.173 289.447 220.389C289.339 220.593 289.279 220.809 289.267 221.037H293.065ZM295.783 222.171C295.783 222.291 295.783 222.411 295.783 222.531C295.783 222.651 295.777 222.765 295.765 222.873H289.267C289.291 223.125 289.363 223.353 289.483 223.557C289.615 223.761 289.777 223.941 289.969 224.097C290.173 224.241 290.395 224.355 290.635 224.439C290.887 224.523 291.145 224.565 291.409 224.565C291.877 224.565 292.273 224.481 292.597 224.313C292.921 224.133 293.185 223.905 293.389 223.629L295.441 224.925C295.021 225.537 294.463 226.011 293.767 226.347C293.083 226.671 292.285 226.833 291.373 226.833C290.701 226.833 290.065 226.731 289.465 226.527C288.865 226.311 288.337 226.005 287.881 225.609C287.437 225.201 287.083 224.703 286.819 224.115C286.567 223.527 286.441 222.855 286.441 222.099C286.441 221.367 286.567 220.707 286.819 220.119C287.071 219.519 287.413 219.015 287.845 218.607C288.277 218.187 288.787 217.863 289.375 217.635C289.963 217.407 290.599 217.293 291.283 217.293C291.943 217.293 292.549 217.407 293.101 217.635C293.653 217.851 294.127 218.169 294.523 218.589C294.919 219.009 295.225 219.519 295.441 220.119C295.669 220.719 295.783 221.403 295.783 222.171ZM304.4 226.545V225.375H304.364C304.076 225.831 303.662 226.185 303.122 226.437C302.594 226.677 302.03 226.797 301.43 226.797C300.758 226.797 300.158 226.665 299.63 226.401C299.102 226.137 298.652 225.789 298.28 225.357C297.92 224.913 297.644 224.403 297.452 223.827C297.26 223.251 297.164 222.651 297.164 222.027C297.164 221.403 297.26 220.809 297.452 220.245C297.656 219.669 297.938 219.165 298.298 218.733C298.67 218.301 299.114 217.959 299.63 217.707C300.158 217.455 300.746 217.329 301.394 217.329C302.054 217.329 302.612 217.455 303.068 217.707C303.524 217.959 303.878 218.235 304.13 218.535H304.166V212.937H307.118V226.545H304.4ZM304.292 222.045C304.292 221.757 304.238 221.475 304.13 221.199C304.034 220.923 303.89 220.677 303.698 220.461C303.518 220.245 303.296 220.071 303.032 219.939C302.768 219.807 302.468 219.741 302.132 219.741C301.784 219.741 301.478 219.807 301.214 219.939C300.95 220.071 300.728 220.245 300.548 220.461C300.368 220.665 300.23 220.905 300.134 221.181C300.05 221.457 300.008 221.739 300.008 222.027C300.008 222.315 300.05 222.603 300.134 222.891C300.23 223.167 300.368 223.413 300.548 223.629C300.728 223.845 300.95 224.019 301.214 224.151C301.478 224.283 301.784 224.349 302.132 224.349C302.468 224.349 302.768 224.283 303.032 224.151C303.296 224.019 303.518 223.845 303.698 223.629C303.89 223.413 304.034 223.167 304.13 222.891C304.238 222.615 304.292 222.333 304.292 222.045ZM319.866 226.545V221.685C319.866 221.433 319.848 221.193 319.812 220.965C319.776 220.737 319.704 220.539 319.596 220.371C319.5 220.191 319.368 220.053 319.2 219.957C319.032 219.849 318.816 219.795 318.552 219.795C318.036 219.795 317.64 219.981 317.364 220.353C317.088 220.713 316.95 221.163 316.95 221.703V226.545H313.998V212.937H316.95V218.715H316.986C317.19 218.355 317.514 218.037 317.958 217.761C318.402 217.473 318.936 217.329 319.56 217.329C320.172 217.329 320.682 217.437 321.09 217.653C321.51 217.869 321.846 218.151 322.098 218.499C322.362 218.835 322.548 219.225 322.656 219.669C322.776 220.113 322.836 220.557 322.836 221.001V226.545H319.866ZM331.245 221.037C331.245 220.569 331.095 220.167 330.795 219.831C330.507 219.495 330.069 219.327 329.481 219.327C329.193 219.327 328.929 219.375 328.689 219.471C328.449 219.555 328.239 219.675 328.059 219.831C327.879 219.987 327.735 220.173 327.627 220.389C327.519 220.593 327.459 220.809 327.447 221.037H331.245ZM333.963 222.171C333.963 222.291 333.963 222.411 333.963 222.531C333.963 222.651 333.957 222.765 333.945 222.873H327.447C327.471 223.125 327.543 223.353 327.663 223.557C327.795 223.761 327.957 223.941 328.149 224.097C328.353 224.241 328.575 224.355 328.815 224.439C329.067 224.523 329.325 224.565 329.589 224.565C330.057 224.565 330.453 224.481 330.777 224.313C331.101 224.133 331.365 223.905 331.569 223.629L333.621 224.925C333.201 225.537 332.643 226.011 331.947 226.347C331.263 226.671 330.465 226.833 329.553 226.833C328.881 226.833 328.245 226.731 327.645 226.527C327.045 226.311 326.517 226.005 326.061 225.609C325.617 225.201 325.263 224.703 324.999 224.115C324.747 223.527 324.621 222.855 324.621 222.099C324.621 221.367 324.747 220.707 324.999 220.119C325.251 219.519 325.593 219.015 326.025 218.607C326.457 218.187 326.967 217.863 327.555 217.635C328.143 217.407 328.779 217.293 329.463 217.293C330.123 217.293 330.729 217.407 331.281 217.635C331.833 217.851 332.307 218.169 332.703 218.589C333.099 219.009 333.405 219.519 333.621 220.119C333.849 220.719 333.963 221.403 333.963 222.171ZM341.608 219.993C341.476 219.957 341.344 219.933 341.212 219.921C341.092 219.909 340.972 219.903 340.852 219.903C340.456 219.903 340.12 219.975 339.844 220.119C339.58 220.263 339.364 220.437 339.196 220.641C339.04 220.845 338.926 221.067 338.854 221.307C338.782 221.547 338.746 221.757 338.746 221.937V226.545H335.794V217.581H338.638V218.877H338.674C338.902 218.421 339.226 218.049 339.646 217.761C340.066 217.473 340.552 217.329 341.104 217.329C341.224 217.329 341.338 217.335 341.446 217.347C341.566 217.359 341.662 217.377 341.734 217.401L341.608 219.993ZM348.788 221.037C348.788 220.569 348.638 220.167 348.338 219.831C348.05 219.495 347.612 219.327 347.024 219.327C346.736 219.327 346.472 219.375 346.232 219.471C345.992 219.555 345.782 219.675 345.602 219.831C345.422 219.987 345.278 220.173 345.17 220.389C345.062 220.593 345.002 220.809 344.99 221.037H348.788ZM351.506 222.171C351.506 222.291 351.506 222.411 351.506 222.531C351.506 222.651 351.5 222.765 351.488 222.873H344.99C345.014 223.125 345.086 223.353 345.206 223.557C345.338 223.761 345.5 223.941 345.692 224.097C345.896 224.241 346.118 224.355 346.358 224.439C346.61 224.523 346.868 224.565 347.132 224.565C347.6 224.565 347.996 224.481 348.32 224.313C348.644 224.133 348.908 223.905 349.112 223.629L351.164 224.925C350.744 225.537 350.186 226.011 349.49 226.347C348.806 226.671 348.008 226.833 347.096 226.833C346.424 226.833 345.788 226.731 345.188 226.527C344.588 226.311 344.06 226.005 343.604 225.609C343.16 225.201 342.806 224.703 342.542 224.115C342.29 223.527 342.164 222.855 342.164 222.099C342.164 221.367 342.29 220.707 342.542 220.119C342.794 219.519 343.136 219.015 343.568 218.607C344 218.187 344.51 217.863 345.098 217.635C345.686 217.407 346.322 217.293 347.006 217.293C347.666 217.293 348.272 217.407 348.824 217.635C349.376 217.851 349.85 218.169 350.246 218.589C350.642 219.009 350.948 219.519 351.164 220.119C351.392 220.719 351.506 221.403 351.506 222.171ZM362.895 227.895C362.715 228.363 362.511 228.777 362.283 229.137C362.067 229.509 361.803 229.821 361.491 230.073C361.191 230.337 360.831 230.535 360.411 230.667C360.003 230.799 359.517 230.865 358.953 230.865C358.677 230.865 358.389 230.847 358.089 230.811C357.801 230.775 357.549 230.727 357.333 230.667L357.657 228.183C357.801 228.231 357.957 228.267 358.125 228.291C358.305 228.327 358.467 228.345 358.611 228.345C359.067 228.345 359.397 228.237 359.601 228.021C359.805 227.817 359.979 227.523 360.123 227.139L360.411 226.401L356.667 217.581H359.943L361.941 223.341H361.995L363.777 217.581H366.909L362.895 227.895ZM374.223 221.037C374.223 220.569 374.073 220.167 373.773 219.831C373.485 219.495 373.047 219.327 372.459 219.327C372.171 219.327 371.907 219.375 371.667 219.471C371.427 219.555 371.217 219.675 371.037 219.831C370.857 219.987 370.713 220.173 370.605 220.389C370.497 220.593 370.437 220.809 370.425 221.037H374.223ZM376.941 222.171C376.941 222.291 376.941 222.411 376.941 222.531C376.941 222.651 376.935 222.765 376.923 222.873H370.425C370.449 223.125 370.521 223.353 370.641 223.557C370.773 223.761 370.935 223.941 371.127 224.097C371.331 224.241 371.553 224.355 371.793 224.439C372.045 224.523 372.303 224.565 372.567 224.565C373.035 224.565 373.431 224.481 373.755 224.313C374.079 224.133 374.343 223.905 374.547 223.629L376.599 224.925C376.179 225.537 375.621 226.011 374.925 226.347C374.241 226.671 373.443 226.833 372.531 226.833C371.859 226.833 371.223 226.731 370.623 226.527C370.023 226.311 369.495 226.005 369.039 225.609C368.595 225.201 368.241 224.703 367.977 224.115C367.725 223.527 367.599 222.855 367.599 222.099C367.599 221.367 367.725 220.707 367.977 220.119C368.229 219.519 368.571 219.015 369.003 218.607C369.435 218.187 369.945 217.863 370.533 217.635C371.121 217.407 371.757 217.293 372.441 217.293C373.101 217.293 373.707 217.407 374.259 217.635C374.811 217.851 375.285 218.169 375.681 218.589C376.077 219.009 376.383 219.519 376.599 220.119C376.827 220.719 376.941 221.403 376.941 222.171ZM381.976 219.795V223.215C381.976 223.635 382.054 223.953 382.21 224.169C382.378 224.373 382.672 224.475 383.092 224.475C383.236 224.475 383.386 224.463 383.542 224.439C383.71 224.415 383.848 224.379 383.956 224.331L383.992 226.491C383.788 226.563 383.53 226.623 383.218 226.671C382.906 226.731 382.594 226.761 382.282 226.761C381.682 226.761 381.178 226.689 380.77 226.545C380.362 226.389 380.032 226.173 379.78 225.897C379.54 225.609 379.366 225.273 379.258 224.889C379.15 224.493 379.096 224.055 379.096 223.575V219.795H377.656V217.581H379.078V215.223H381.976V217.581H384.082V219.795H381.976Z" fill="#222222"/>
<path d="M92.2443 255.785C91.7963 256.393 91.2149 256.889 90.5003 257.273C89.7856 257.646 88.9269 257.833 87.9243 257.833C87.0603 257.833 86.2603 257.689 85.5243 257.401C84.7989 257.102 84.1696 256.692 83.6363 256.169C83.1136 255.636 82.7029 255.006 82.4043 254.281C82.1056 253.545 81.9563 252.74 81.9563 251.865C81.9563 250.98 82.1056 250.174 82.4043 249.449C82.7136 248.713 83.1349 248.089 83.6683 247.577C84.2123 247.054 84.8523 246.649 85.5883 246.361C86.3243 246.073 87.1243 245.929 87.9883 245.929C88.3723 245.929 88.7616 245.966 89.1562 246.041C89.5509 246.116 89.9296 246.228 90.2923 246.377C90.6549 246.526 90.9856 246.713 91.2843 246.937C91.5829 247.15 91.8389 247.401 92.0523 247.689L90.8043 248.649C90.5269 248.265 90.1323 247.95 89.6203 247.705C89.1189 247.449 88.5749 247.321 87.9883 247.321C87.3269 247.321 86.7296 247.444 86.1963 247.689C85.6736 247.924 85.2256 248.249 84.8523 248.665C84.4789 249.081 84.1909 249.566 83.9883 250.121C83.7856 250.665 83.6843 251.246 83.6843 251.865C83.6843 252.505 83.7803 253.102 83.9723 253.657C84.1749 254.212 84.4576 254.697 84.8203 255.113C85.1936 255.518 85.6416 255.838 86.1643 256.073C86.6976 256.308 87.2896 256.425 87.9403 256.425C88.5803 256.425 89.1616 256.297 89.6843 256.041C90.2069 255.785 90.6389 255.412 90.9803 254.921L92.2443 255.785ZM95.3164 257.545H93.8124V245.449H95.3164V257.545ZM99.4566 257.545H97.9526V249.961H99.4566V257.545ZM99.7126 247.225C99.7126 247.502 99.6113 247.732 99.4086 247.913C99.2166 248.094 98.982 248.185 98.7046 248.185C98.4273 248.185 98.1926 248.094 98.0006 247.913C97.8086 247.721 97.7126 247.492 97.7126 247.225C97.7126 246.948 97.8086 246.718 98.0006 246.537C98.1926 246.345 98.4273 246.249 98.7046 246.249C98.982 246.249 99.2166 246.345 99.4086 246.537C99.6113 246.718 99.7126 246.948 99.7126 247.225ZM107.389 251.881C107.229 251.636 106.989 251.433 106.669 251.273C106.349 251.102 106.008 251.017 105.645 251.017C105.251 251.017 104.899 251.092 104.589 251.241C104.291 251.39 104.035 251.593 103.821 251.849C103.608 252.094 103.443 252.382 103.325 252.713C103.219 253.044 103.165 253.39 103.165 253.753C103.165 254.116 103.219 254.462 103.325 254.793C103.443 255.124 103.608 255.417 103.821 255.673C104.035 255.918 104.296 256.116 104.605 256.265C104.915 256.414 105.267 256.489 105.661 256.489C106.045 256.489 106.392 256.414 106.701 256.265C107.021 256.116 107.283 255.913 107.485 255.657L108.493 256.569C108.173 256.942 107.773 257.236 107.293 257.449C106.813 257.652 106.269 257.753 105.661 257.753C105.075 257.753 104.531 257.657 104.029 257.465C103.539 257.273 103.112 257.006 102.749 256.665C102.387 256.313 102.099 255.892 101.885 255.401C101.683 254.91 101.581 254.361 101.581 253.753C101.581 253.156 101.683 252.612 101.885 252.121C102.088 251.63 102.371 251.209 102.733 250.857C103.096 250.505 103.523 250.233 104.013 250.041C104.515 249.849 105.053 249.753 105.629 249.753C106.163 249.753 106.691 249.86 107.213 250.073C107.747 250.286 108.168 250.596 108.477 251.001L107.389 251.881ZM111.52 253.257H111.568L114.752 249.961H116.767L113.216 253.401L117.072 257.545H114.992L111.568 253.609H111.52V257.545H110.016V245.449H111.52V253.257ZM130.101 253.737C130.101 254.324 129.994 254.862 129.781 255.353C129.578 255.844 129.29 256.27 128.917 256.633C128.554 256.985 128.122 257.262 127.621 257.465C127.12 257.657 126.581 257.753 126.005 257.753C125.429 257.753 124.89 257.657 124.389 257.465C123.888 257.262 123.456 256.985 123.093 256.633C122.73 256.27 122.442 255.844 122.229 255.353C122.026 254.862 121.925 254.324 121.925 253.737C121.925 253.15 122.026 252.617 122.229 252.137C122.442 251.646 122.73 251.225 123.093 250.873C123.456 250.521 123.888 250.249 124.389 250.057C124.89 249.854 125.429 249.753 126.005 249.753C126.581 249.753 127.12 249.854 127.621 250.057C128.122 250.249 128.554 250.521 128.917 250.873C129.29 251.225 129.578 251.646 129.781 252.137C129.994 252.617 130.101 253.15 130.101 253.737ZM128.533 253.737C128.533 253.374 128.474 253.028 128.357 252.697C128.25 252.366 128.09 252.078 127.877 251.833C127.664 251.577 127.397 251.374 127.077 251.225C126.768 251.076 126.41 251.001 126.005 251.001C125.6 251.001 125.237 251.076 124.917 251.225C124.608 251.374 124.346 251.577 124.133 251.833C123.92 252.078 123.754 252.366 123.637 252.697C123.53 253.028 123.477 253.374 123.477 253.737C123.477 254.1 123.53 254.446 123.637 254.777C123.754 255.108 123.92 255.401 124.133 255.657C124.346 255.913 124.608 256.116 124.917 256.265C125.237 256.414 125.6 256.489 126.005 256.489C126.41 256.489 126.768 256.414 127.077 256.265C127.397 256.116 127.664 255.913 127.877 255.657C128.09 255.401 128.25 255.108 128.357 254.777C128.474 254.446 128.533 254.1 128.533 253.737ZM133.547 249.961C133.568 250.153 133.584 250.372 133.595 250.617C133.605 250.852 133.611 251.049 133.611 251.209H133.659C133.755 251.006 133.883 250.82 134.043 250.649C134.213 250.468 134.405 250.313 134.619 250.185C134.832 250.046 135.067 249.94 135.323 249.865C135.579 249.79 135.845 249.753 136.123 249.753C136.613 249.753 137.035 249.838 137.387 250.009C137.739 250.169 138.032 250.388 138.267 250.665C138.501 250.942 138.672 251.268 138.779 251.641C138.896 252.014 138.955 252.414 138.955 252.841V257.545H137.451V253.337C137.451 253.028 137.424 252.734 137.371 252.457C137.328 252.18 137.243 251.934 137.115 251.721C136.987 251.508 136.811 251.337 136.587 251.209C136.363 251.081 136.075 251.017 135.723 251.017C135.125 251.017 134.635 251.246 134.251 251.705C133.877 252.153 133.691 252.756 133.691 253.513V257.545H132.187V251.593C132.187 251.39 132.181 251.129 132.171 250.809C132.16 250.489 132.144 250.206 132.123 249.961H133.547ZM149.211 251.193H147.195V255.145C147.195 255.604 147.28 255.934 147.451 256.137C147.622 256.329 147.894 256.425 148.267 256.425C148.406 256.425 148.555 256.409 148.715 256.377C148.875 256.345 149.019 256.297 149.147 256.233L149.195 257.465C149.014 257.529 148.811 257.577 148.587 257.609C148.374 257.652 148.15 257.673 147.915 257.673C147.2 257.673 146.651 257.476 146.267 257.081C145.894 256.686 145.707 256.094 145.707 255.305V251.193H144.251V249.961H145.707V247.785H147.195V249.961H149.211V251.193ZM152.333 251.113C152.514 250.74 152.823 250.42 153.261 250.153C153.698 249.886 154.189 249.753 154.733 249.753C155.223 249.753 155.645 249.838 155.997 250.009C156.349 250.169 156.642 250.388 156.877 250.665C157.111 250.942 157.282 251.268 157.389 251.641C157.506 252.014 157.565 252.414 157.565 252.841V257.545H156.061V253.353C156.061 253.044 156.034 252.75 155.981 252.473C155.938 252.196 155.853 251.95 155.725 251.737C155.597 251.524 155.421 251.353 155.197 251.225C154.983 251.097 154.701 251.033 154.349 251.033C153.751 251.033 153.261 251.262 152.877 251.721C152.493 252.169 152.301 252.772 152.301 253.529V257.545H150.797V245.449H152.301V251.113H152.333ZM165.661 253.081C165.65 252.782 165.597 252.505 165.501 252.249C165.415 251.982 165.282 251.753 165.101 251.561C164.93 251.369 164.711 251.22 164.445 251.113C164.189 250.996 163.885 250.937 163.533 250.937C163.213 250.937 162.909 250.996 162.621 251.113C162.343 251.22 162.098 251.369 161.885 251.561C161.682 251.753 161.511 251.982 161.373 252.249C161.245 252.505 161.17 252.782 161.149 253.081H165.661ZM167.181 253.689C167.181 253.774 167.181 253.86 167.181 253.945C167.181 254.03 167.175 254.116 167.165 254.201H161.149C161.159 254.521 161.229 254.825 161.357 255.113C161.495 255.39 161.677 255.636 161.901 255.849C162.125 256.052 162.381 256.212 162.669 256.329C162.967 256.446 163.282 256.505 163.613 256.505C164.125 256.505 164.567 256.393 164.941 256.169C165.314 255.945 165.607 255.673 165.821 255.353L166.877 256.201C166.471 256.734 165.991 257.129 165.437 257.385C164.893 257.63 164.285 257.753 163.613 257.753C163.037 257.753 162.503 257.657 162.013 257.465C161.522 257.273 161.101 257.006 160.749 256.665C160.397 256.313 160.119 255.892 159.917 255.401C159.714 254.91 159.613 254.366 159.613 253.769C159.613 253.182 159.709 252.644 159.901 252.153C160.103 251.652 160.381 251.225 160.733 250.873C161.085 250.521 161.501 250.249 161.981 250.057C162.461 249.854 162.978 249.753 163.533 249.753C164.087 249.753 164.589 249.844 165.037 250.025C165.495 250.206 165.879 250.468 166.189 250.809C166.509 251.15 166.754 251.566 166.925 252.057C167.095 252.537 167.181 253.081 167.181 253.689ZM175.76 246.889H174.272V258.985H175.76V260.041H172.928V245.833H175.76V246.889ZM183.015 252.041H186.567V253.353H183.015V256.905H181.703V253.353H178.151V252.041H181.703V248.489H183.015V252.041ZM188.952 258.985H190.44V246.889H188.952V245.833H191.784V260.041H188.952V258.985ZM198.293 257.545H196.533L201.445 246.217H202.885L207.749 257.545H205.957L204.805 254.761H199.429L198.293 257.545ZM199.989 253.369H204.229L202.117 248.057L199.989 253.369ZM215.172 256.345C214.884 256.804 214.489 257.156 213.988 257.401C213.497 257.636 212.98 257.753 212.436 257.753C211.849 257.753 211.321 257.652 210.852 257.449C210.383 257.236 209.983 256.948 209.652 256.585C209.321 256.222 209.065 255.796 208.884 255.305C208.703 254.814 208.612 254.292 208.612 253.737C208.612 253.182 208.703 252.665 208.884 252.185C209.065 251.694 209.321 251.268 209.652 250.905C209.993 250.542 210.399 250.26 210.868 250.057C211.337 249.854 211.855 249.753 212.42 249.753C213.039 249.753 213.577 249.886 214.036 250.153C214.495 250.409 214.857 250.724 215.124 251.097H215.156V245.449H216.66V257.545H215.204V256.345H215.172ZM210.18 253.737C210.18 254.089 210.233 254.43 210.34 254.761C210.447 255.092 210.607 255.385 210.82 255.641C211.033 255.897 211.295 256.105 211.604 256.265C211.913 256.414 212.276 256.489 212.692 256.489C213.076 256.489 213.423 256.414 213.732 256.265C214.052 256.116 214.324 255.918 214.548 255.673C214.772 255.417 214.943 255.124 215.06 254.793C215.188 254.462 215.252 254.116 215.252 253.753C215.252 253.39 215.188 253.044 215.06 252.713C214.943 252.382 214.772 252.089 214.548 251.833C214.324 251.577 214.052 251.374 213.732 251.225C213.423 251.076 213.076 251.001 212.692 251.001C212.276 251.001 211.913 251.076 211.604 251.225C211.295 251.374 211.033 251.577 210.82 251.833C210.607 252.089 210.447 252.382 210.34 252.713C210.233 253.044 210.18 253.385 210.18 253.737ZM225.328 256.345C225.04 256.804 224.646 257.156 224.144 257.401C223.654 257.636 223.136 257.753 222.592 257.753C222.006 257.753 221.478 257.652 221.008 257.449C220.539 257.236 220.139 256.948 219.808 256.585C219.478 256.222 219.222 255.796 219.04 255.305C218.859 254.814 218.768 254.292 218.768 253.737C218.768 253.182 218.859 252.665 219.04 252.185C219.222 251.694 219.478 251.268 219.808 250.905C220.15 250.542 220.555 250.26 221.024 250.057C221.494 249.854 222.011 249.753 222.576 249.753C223.195 249.753 223.734 249.886 224.192 250.153C224.651 250.409 225.014 250.724 225.28 251.097H225.312V245.449H226.816V257.545H225.36V256.345H225.328ZM220.336 253.737C220.336 254.089 220.39 254.43 220.496 254.761C220.603 255.092 220.763 255.385 220.976 255.641C221.19 255.897 221.451 256.105 221.76 256.265C222.07 256.414 222.432 256.489 222.848 256.489C223.232 256.489 223.579 256.414 223.888 256.265C224.208 256.116 224.48 255.918 224.704 255.673C224.928 255.417 225.099 255.124 225.216 254.793C225.344 254.462 225.408 254.116 225.408 253.753C225.408 253.39 225.344 253.044 225.216 252.713C225.099 252.382 224.928 252.089 224.704 251.833C224.48 251.577 224.208 251.374 223.888 251.225C223.579 251.076 223.232 251.001 222.848 251.001C222.432 251.001 222.07 251.076 221.76 251.225C221.451 251.374 221.19 251.577 220.976 251.833C220.763 252.089 220.603 252.382 220.496 252.713C220.39 253.044 220.336 253.385 220.336 253.737ZM234.925 256.345V257.545H233.469V245.449H234.973V251.097H235.021C235.277 250.724 235.634 250.409 236.093 250.153C236.551 249.886 237.095 249.753 237.725 249.753C238.29 249.753 238.802 249.854 239.261 250.057C239.73 250.26 240.13 250.542 240.461 250.905C240.802 251.268 241.063 251.694 241.245 252.185C241.426 252.665 241.517 253.182 241.517 253.737C241.517 254.292 241.426 254.814 241.245 255.305C241.063 255.796 240.807 256.222 240.477 256.585C240.146 256.948 239.746 257.236 239.277 257.449C238.807 257.652 238.279 257.753 237.693 257.753C237.149 257.753 236.631 257.636 236.141 257.401C235.65 257.156 235.255 256.804 234.957 256.345H234.925ZM239.965 253.737C239.965 253.385 239.911 253.044 239.805 252.713C239.698 252.382 239.538 252.089 239.325 251.833C239.111 251.577 238.845 251.374 238.525 251.225C238.215 251.076 237.853 251.001 237.437 251.001C237.053 251.001 236.701 251.076 236.381 251.225C236.071 251.374 235.805 251.577 235.581 251.833C235.357 252.089 235.181 252.382 235.053 252.713C234.935 253.044 234.877 253.39 234.877 253.753C234.877 254.116 234.935 254.462 235.053 254.793C235.181 255.124 235.357 255.417 235.581 255.673C235.805 255.918 236.071 256.116 236.381 256.265C236.701 256.414 237.053 256.489 237.437 256.489C237.853 256.489 238.215 256.414 238.525 256.265C238.845 256.105 239.111 255.897 239.325 255.641C239.538 255.385 239.698 255.092 239.805 254.761C239.911 254.43 239.965 254.089 239.965 253.737ZM248.953 257.545C248.931 257.353 248.915 257.14 248.905 256.905C248.894 256.66 248.889 256.457 248.889 256.297H248.857C248.665 256.702 248.339 257.049 247.881 257.337C247.433 257.614 246.931 257.753 246.377 257.753C245.886 257.753 245.459 257.673 245.097 257.513C244.745 257.353 244.451 257.134 244.217 256.857C243.993 256.569 243.822 256.238 243.705 255.865C243.598 255.492 243.545 255.092 243.545 254.665V249.961H245.049V254.153C245.049 254.462 245.07 254.761 245.113 255.049C245.166 255.326 245.257 255.572 245.385 255.785C245.513 255.998 245.689 256.169 245.913 256.297C246.137 256.425 246.425 256.489 246.777 256.489C247.385 256.489 247.875 256.265 248.249 255.817C248.622 255.358 248.809 254.75 248.809 253.993V249.961H250.312V255.913C250.312 256.116 250.318 256.377 250.329 256.697C250.339 257.017 250.355 257.3 250.377 257.545H248.953ZM256.633 251.193H254.617V255.145C254.617 255.604 254.702 255.934 254.873 256.137C255.044 256.329 255.316 256.425 255.689 256.425C255.828 256.425 255.977 256.409 256.137 256.377C256.297 256.345 256.441 256.297 256.569 256.233L256.617 257.465C256.436 257.529 256.233 257.577 256.009 257.609C255.796 257.652 255.572 257.673 255.337 257.673C254.622 257.673 254.073 257.476 253.689 257.081C253.316 256.686 253.129 256.094 253.129 255.305V251.193H251.673V249.961H253.129V247.785H254.617V249.961H256.633V251.193ZM261.664 251.193H259.648V255.145C259.648 255.604 259.734 255.934 259.904 256.137C260.075 256.329 260.347 256.425 260.72 256.425C260.859 256.425 261.008 256.409 261.168 256.377C261.328 256.345 261.472 256.297 261.6 256.233L261.648 257.465C261.467 257.529 261.264 257.577 261.04 257.609C260.827 257.652 260.603 257.673 260.368 257.673C259.654 257.673 259.104 257.476 258.72 257.081C258.347 256.686 258.16 256.094 258.16 255.305V251.193H256.704V249.961H258.16V247.785H259.648V249.961H261.664V251.193ZM270.898 253.737C270.898 254.324 270.791 254.862 270.578 255.353C270.375 255.844 270.087 256.27 269.714 256.633C269.351 256.985 268.919 257.262 268.418 257.465C267.917 257.657 267.378 257.753 266.802 257.753C266.226 257.753 265.687 257.657 265.186 257.465C264.685 257.262 264.253 256.985 263.89 256.633C263.527 256.27 263.239 255.844 263.026 255.353C262.823 254.862 262.722 254.324 262.722 253.737C262.722 253.15 262.823 252.617 263.026 252.137C263.239 251.646 263.527 251.225 263.89 250.873C264.253 250.521 264.685 250.249 265.186 250.057C265.687 249.854 266.226 249.753 266.802 249.753C267.378 249.753 267.917 249.854 268.418 250.057C268.919 250.249 269.351 250.521 269.714 250.873C270.087 251.225 270.375 251.646 270.578 252.137C270.791 252.617 270.898 253.15 270.898 253.737ZM269.33 253.737C269.33 253.374 269.271 253.028 269.154 252.697C269.047 252.366 268.887 252.078 268.674 251.833C268.461 251.577 268.194 251.374 267.874 251.225C267.565 251.076 267.207 251.001 266.802 251.001C266.397 251.001 266.034 251.076 265.714 251.225C265.405 251.374 265.143 251.577 264.93 251.833C264.717 252.078 264.551 252.366 264.434 252.697C264.327 253.028 264.274 253.374 264.274 253.737C264.274 254.1 264.327 254.446 264.434 254.777C264.551 255.108 264.717 255.401 264.93 255.657C265.143 255.913 265.405 256.116 265.714 256.265C266.034 256.414 266.397 256.489 266.802 256.489C267.207 256.489 267.565 256.414 267.874 256.265C268.194 256.116 268.461 255.913 268.674 255.657C268.887 255.401 269.047 255.108 269.154 254.777C269.271 254.446 269.33 254.1 269.33 253.737ZM274.344 249.961C274.365 250.153 274.381 250.372 274.392 250.617C274.402 250.852 274.408 251.049 274.408 251.209H274.456C274.552 251.006 274.68 250.82 274.84 250.649C275.01 250.468 275.202 250.313 275.416 250.185C275.629 250.046 275.864 249.94 276.12 249.865C276.376 249.79 276.642 249.753 276.92 249.753C277.41 249.753 277.832 249.838 278.184 250.009C278.536 250.169 278.829 250.388 279.064 250.665C279.298 250.942 279.469 251.268 279.576 251.641C279.693 252.014 279.752 252.414 279.752 252.841V257.545H278.248V253.337C278.248 253.028 278.221 252.734 278.168 252.457C278.125 252.18 278.04 251.934 277.912 251.721C277.784 251.508 277.608 251.337 277.384 251.209C277.16 251.081 276.872 251.017 276.52 251.017C275.922 251.017 275.432 251.246 275.048 251.705C274.674 252.153 274.488 252.756 274.488 253.513V257.545H272.984V251.593C272.984 251.39 272.978 251.129 272.968 250.809C272.957 250.489 272.941 250.206 272.92 249.961H274.344ZM290.008 251.193H287.992V255.145C287.992 255.604 288.077 255.934 288.248 256.137C288.419 256.329 288.691 256.425 289.064 256.425C289.203 256.425 289.352 256.409 289.512 256.377C289.672 256.345 289.816 256.297 289.944 256.233L289.992 257.465C289.811 257.529 289.608 257.577 289.384 257.609C289.171 257.652 288.947 257.673 288.712 257.673C287.997 257.673 287.448 257.476 287.064 257.081C286.691 256.686 286.504 256.094 286.504 255.305V251.193H285.048V249.961H286.504V247.785H287.992V249.961H290.008V251.193ZM299.242 253.737C299.242 254.324 299.135 254.862 298.922 255.353C298.719 255.844 298.431 256.27 298.058 256.633C297.695 256.985 297.263 257.262 296.762 257.465C296.26 257.657 295.722 257.753 295.146 257.753C294.57 257.753 294.031 257.657 293.53 257.465C293.028 257.262 292.596 256.985 292.234 256.633C291.871 256.27 291.583 255.844 291.37 255.353C291.167 254.862 291.066 254.324 291.066 253.737C291.066 253.15 291.167 252.617 291.37 252.137C291.583 251.646 291.871 251.225 292.234 250.873C292.596 250.521 293.028 250.249 293.53 250.057C294.031 249.854 294.57 249.753 295.146 249.753C295.722 249.753 296.26 249.854 296.762 250.057C297.263 250.249 297.695 250.521 298.058 250.873C298.431 251.225 298.719 251.646 298.922 252.137C299.135 252.617 299.242 253.15 299.242 253.737ZM297.674 253.737C297.674 253.374 297.615 253.028 297.498 252.697C297.391 252.366 297.231 252.078 297.018 251.833C296.804 251.577 296.538 251.374 296.218 251.225C295.908 251.076 295.551 251.001 295.146 251.001C294.74 251.001 294.378 251.076 294.058 251.225C293.748 251.374 293.487 251.577 293.274 251.833C293.06 252.078 292.895 252.366 292.778 252.697C292.671 253.028 292.618 253.374 292.618 253.737C292.618 254.1 292.671 254.446 292.778 254.777C292.895 255.108 293.06 255.401 293.274 255.657C293.487 255.913 293.748 256.116 294.058 256.265C294.378 256.414 294.74 256.489 295.146 256.489C295.551 256.489 295.908 256.414 296.218 256.265C296.538 256.116 296.804 255.913 297.018 255.657C297.231 255.401 297.391 255.108 297.498 254.777C297.615 254.446 297.674 254.1 297.674 253.737ZM310.047 252.633C310.047 252.068 309.877 251.652 309.535 251.385C309.194 251.108 308.741 250.969 308.175 250.969C307.749 250.969 307.343 251.054 306.959 251.225C306.586 251.385 306.271 251.593 306.015 251.849L305.215 250.889C305.589 250.537 306.042 250.26 306.575 250.057C307.119 249.854 307.701 249.753 308.319 249.753C308.863 249.753 309.333 249.833 309.727 249.993C310.133 250.142 310.463 250.35 310.719 250.617C310.975 250.884 311.167 251.198 311.295 251.561C311.423 251.924 311.487 252.313 311.487 252.729V256.041C311.487 256.297 311.493 256.569 311.503 256.857C311.525 257.134 311.557 257.364 311.599 257.545H310.239C310.154 257.182 310.111 256.82 310.111 256.457H310.063C309.786 256.862 309.434 257.177 309.007 257.401C308.591 257.625 308.095 257.737 307.519 257.737C307.221 257.737 306.906 257.694 306.575 257.609C306.255 257.534 305.962 257.406 305.695 257.225C305.429 257.044 305.205 256.804 305.023 256.505C304.853 256.206 304.767 255.838 304.767 255.401C304.767 254.825 304.922 254.372 305.231 254.041C305.541 253.7 305.946 253.444 306.447 253.273C306.949 253.092 307.514 252.974 308.143 252.921C308.773 252.868 309.407 252.841 310.047 252.841V252.633ZM309.679 253.929C309.306 253.929 308.917 253.945 308.511 253.977C308.117 254.009 307.754 254.073 307.423 254.169C307.103 254.265 306.837 254.409 306.623 254.601C306.41 254.793 306.303 255.049 306.303 255.369C306.303 255.593 306.346 255.78 306.431 255.929C306.527 256.078 306.65 256.201 306.799 256.297C306.949 256.393 307.114 256.462 307.295 256.505C307.477 256.537 307.663 256.553 307.855 256.553C308.559 256.553 309.098 256.345 309.471 255.929C309.855 255.502 310.047 254.969 310.047 254.329V253.929H309.679ZM320.047 256.345C319.759 256.804 319.364 257.156 318.863 257.401C318.372 257.636 317.855 257.753 317.311 257.753C316.724 257.753 316.196 257.652 315.727 257.449C315.258 257.236 314.858 256.948 314.527 256.585C314.196 256.222 313.94 255.796 313.759 255.305C313.578 254.814 313.487 254.292 313.487 253.737C313.487 253.182 313.578 252.665 313.759 252.185C313.94 251.694 314.196 251.268 314.527 250.905C314.868 250.542 315.274 250.26 315.743 250.057C316.212 249.854 316.73 249.753 317.295 249.753C317.914 249.753 318.452 249.886 318.911 250.153C319.37 250.409 319.732 250.724 319.999 251.097H320.031V245.449H321.535V257.545H320.079V256.345H320.047ZM315.055 253.737C315.055 254.089 315.108 254.43 315.215 254.761C315.322 255.092 315.482 255.385 315.695 255.641C315.908 255.897 316.17 256.105 316.479 256.265C316.788 256.414 317.151 256.489 317.567 256.489C317.951 256.489 318.298 256.414 318.607 256.265C318.927 256.116 319.199 255.918 319.423 255.673C319.647 255.417 319.818 255.124 319.935 254.793C320.063 254.462 320.127 254.116 320.127 253.753C320.127 253.39 320.063 253.044 319.935 252.713C319.818 252.382 319.647 252.089 319.423 251.833C319.199 251.577 318.927 251.374 318.607 251.225C318.298 251.076 317.951 251.001 317.567 251.001C317.151 251.001 316.788 251.076 316.479 251.225C316.17 251.374 315.908 251.577 315.695 251.833C315.482 252.089 315.322 252.382 315.215 252.713C315.108 253.044 315.055 253.385 315.055 253.737ZM330.203 256.345C329.915 256.804 329.521 257.156 329.019 257.401C328.529 257.636 328.011 257.753 327.467 257.753C326.881 257.753 326.353 257.652 325.883 257.449C325.414 257.236 325.014 256.948 324.683 256.585C324.353 256.222 324.097 255.796 323.915 255.305C323.734 254.814 323.643 254.292 323.643 253.737C323.643 253.182 323.734 252.665 323.915 252.185C324.097 251.694 324.353 251.268 324.683 250.905C325.025 250.542 325.43 250.26 325.899 250.057C326.369 249.854 326.886 249.753 327.451 249.753C328.07 249.753 328.609 249.886 329.067 250.153C329.526 250.409 329.889 250.724 330.155 251.097H330.187V245.449H331.691V257.545H330.235V256.345H330.203ZM325.211 253.737C325.211 254.089 325.265 254.43 325.371 254.761C325.478 255.092 325.638 255.385 325.851 255.641C326.065 255.897 326.326 256.105 326.635 256.265C326.945 256.414 327.307 256.489 327.723 256.489C328.107 256.489 328.454 256.414 328.763 256.265C329.083 256.116 329.355 255.918 329.579 255.673C329.803 255.417 329.974 255.124 330.091 254.793C330.219 254.462 330.283 254.116 330.283 253.753C330.283 253.39 330.219 253.044 330.091 252.713C329.974 252.382 329.803 252.089 329.579 251.833C329.355 251.577 329.083 251.374 328.763 251.225C328.454 251.076 328.107 251.001 327.723 251.001C327.307 251.001 326.945 251.076 326.635 251.225C326.326 251.374 326.065 251.577 325.851 251.833C325.638 252.089 325.478 252.382 325.371 252.713C325.265 253.044 325.211 253.385 325.211 253.737ZM339.832 257.545H338.328V249.961H339.832V257.545ZM340.088 247.225C340.088 247.502 339.986 247.732 339.784 247.913C339.592 248.094 339.357 248.185 339.08 248.185C338.802 248.185 338.568 248.094 338.376 247.913C338.184 247.721 338.088 247.492 338.088 247.225C338.088 246.948 338.184 246.718 338.376 246.537C338.568 246.345 338.802 246.249 339.08 246.249C339.357 246.249 339.592 246.345 339.784 246.537C339.986 246.718 340.088 246.948 340.088 247.225ZM346.164 251.193H344.148V255.145C344.148 255.604 344.234 255.934 344.404 256.137C344.575 256.329 344.847 256.425 345.22 256.425C345.359 256.425 345.508 256.409 345.668 256.377C345.828 256.345 345.972 256.297 346.1 256.233L346.148 257.465C345.967 257.529 345.764 257.577 345.54 257.609C345.327 257.652 345.103 257.673 344.868 257.673C344.154 257.673 343.604 257.476 343.22 257.081C342.847 256.686 342.66 256.094 342.66 255.305V251.193H341.204V249.961H342.66V247.785H344.148V249.961H346.164V251.193ZM353.27 253.081C353.259 252.782 353.206 252.505 353.11 252.249C353.025 251.982 352.891 251.753 352.71 251.561C352.539 251.369 352.321 251.22 352.054 251.113C351.798 250.996 351.494 250.937 351.142 250.937C350.822 250.937 350.518 250.996 350.23 251.113C349.953 251.22 349.707 251.369 349.494 251.561C349.291 251.753 349.121 251.982 348.982 252.249C348.854 252.505 348.779 252.782 348.758 253.081H353.27ZM354.79 253.689C354.79 253.774 354.79 253.86 354.79 253.945C354.79 254.03 354.785 254.116 354.774 254.201H348.758C348.769 254.521 348.838 254.825 348.966 255.113C349.105 255.39 349.286 255.636 349.51 255.849C349.734 256.052 349.99 256.212 350.278 256.329C350.577 256.446 350.891 256.505 351.222 256.505C351.734 256.505 352.177 256.393 352.55 256.169C352.923 255.945 353.217 255.673 353.43 255.353L354.486 256.201C354.081 256.734 353.601 257.129 353.046 257.385C352.502 257.63 351.894 257.753 351.222 257.753C350.646 257.753 350.113 257.657 349.622 257.465C349.131 257.273 348.71 257.006 348.358 256.665C348.006 256.313 347.729 255.892 347.526 255.401C347.323 254.91 347.222 254.366 347.222 253.769C347.222 253.182 347.318 252.644 347.51 252.153C347.713 251.652 347.99 251.225 348.342 250.873C348.694 250.521 349.11 250.249 349.59 250.057C350.07 249.854 350.587 249.753 351.142 249.753C351.697 249.753 352.198 249.844 352.646 250.025C353.105 250.206 353.489 250.468 353.798 250.809C354.118 251.15 354.363 251.566 354.534 252.057C354.705 252.537 354.79 253.081 354.79 253.689ZM358.362 251.209C358.554 250.804 358.858 250.462 359.274 250.185C359.7 249.897 360.202 249.753 360.778 249.753C361.29 249.753 361.748 249.87 362.154 250.105C362.57 250.34 362.895 250.729 363.13 251.273C363.386 250.782 363.743 250.409 364.202 250.153C364.66 249.886 365.162 249.753 365.706 249.753C366.196 249.753 366.618 249.838 366.97 250.009C367.322 250.169 367.615 250.388 367.85 250.665C368.084 250.942 368.255 251.268 368.362 251.641C368.479 252.014 368.538 252.414 368.538 252.841V257.545H367.034V253.337C367.034 253.028 367.007 252.734 366.954 252.457C366.9 252.18 366.81 251.934 366.682 251.721C366.554 251.508 366.383 251.337 366.17 251.209C365.956 251.081 365.684 251.017 365.354 251.017C365.012 251.017 364.719 251.092 364.474 251.241C364.228 251.38 364.026 251.566 363.866 251.801C363.716 252.025 363.604 252.281 363.53 252.569C363.466 252.857 363.434 253.15 363.434 253.449V257.545H361.93V253.033C361.93 252.734 361.903 252.462 361.85 252.217C361.796 251.972 361.706 251.764 361.578 251.593C361.45 251.412 361.284 251.273 361.082 251.177C360.879 251.07 360.628 251.017 360.33 251.017C359.775 251.017 359.311 251.246 358.938 251.705C358.575 252.153 358.394 252.756 358.394 253.513V257.545H356.89V251.593C356.89 251.39 356.884 251.129 356.874 250.809C356.863 250.489 356.847 250.206 356.826 249.961H358.25C358.271 250.153 358.287 250.372 358.298 250.617C358.308 250.852 358.314 251.049 358.314 251.209H358.362ZM375.173 251.881C375.003 251.604 374.763 251.38 374.453 251.209C374.144 251.028 373.797 250.937 373.413 250.937C373.243 250.937 373.072 250.958 372.901 251.001C372.731 251.033 372.576 251.092 372.437 251.177C372.309 251.252 372.203 251.353 372.117 251.481C372.043 251.598 372.005 251.748 372.005 251.929C372.005 252.249 372.149 252.489 372.437 252.649C372.725 252.798 373.157 252.937 373.733 253.065C374.096 253.15 374.432 253.252 374.741 253.369C375.051 253.486 375.317 253.636 375.541 253.817C375.776 253.988 375.957 254.196 376.085 254.441C376.213 254.686 376.277 254.974 376.277 255.305C376.277 255.753 376.192 256.132 376.021 256.441C375.851 256.75 375.621 257.006 375.333 257.209C375.056 257.401 374.736 257.54 374.373 257.625C374.011 257.71 373.637 257.753 373.253 257.753C372.677 257.753 372.112 257.641 371.557 257.417C371.013 257.193 370.56 256.852 370.197 256.393L371.269 255.481C371.472 255.78 371.749 256.03 372.101 256.233C372.464 256.436 372.859 256.537 373.285 256.537C373.477 256.537 373.659 256.521 373.829 256.489C374.011 256.446 374.171 256.382 374.309 256.297C374.459 256.212 374.576 256.1 374.661 255.961C374.747 255.822 374.789 255.646 374.789 255.433C374.789 255.081 374.619 254.82 374.277 254.649C373.947 254.478 373.456 254.318 372.805 254.169C372.549 254.105 372.288 254.03 372.021 253.945C371.765 253.849 371.531 253.721 371.317 253.561C371.104 253.401 370.928 253.204 370.789 252.969C370.661 252.724 370.597 252.425 370.597 252.073C370.597 251.668 370.677 251.321 370.837 251.033C371.008 250.734 371.227 250.494 371.493 250.313C371.76 250.121 372.064 249.982 372.405 249.897C372.747 249.801 373.099 249.753 373.461 249.753C374.005 249.753 374.528 249.86 375.029 250.073C375.541 250.286 375.936 250.596 376.213 251.001L375.173 251.881ZM385.899 251.193H383.883V255.145C383.883 255.604 383.968 255.934 384.139 256.137C384.309 256.329 384.581 256.425 384.955 256.425C385.093 256.425 385.243 256.409 385.403 256.377C385.563 256.345 385.707 256.297 385.835 256.233L385.883 257.465C385.701 257.529 385.499 257.577 385.275 257.609C385.061 257.652 384.837 257.673 384.603 257.673C383.888 257.673 383.339 257.476 382.955 257.081C382.581 256.686 382.395 256.094 382.395 255.305V251.193H380.939V249.961H382.395V247.785H383.883V249.961H385.899V251.193ZM395.132 253.737C395.132 254.324 395.026 254.862 394.812 255.353C394.61 255.844 394.322 256.27 393.948 256.633C393.586 256.985 393.154 257.262 392.652 257.465C392.151 257.657 391.612 257.753 391.036 257.753C390.46 257.753 389.922 257.657 389.42 257.465C388.919 257.262 388.487 256.985 388.124 256.633C387.762 256.27 387.474 255.844 387.26 255.353C387.058 254.862 386.956 254.324 386.956 253.737C386.956 253.15 387.058 252.617 387.26 252.137C387.474 251.646 387.762 251.225 388.124 250.873C388.487 250.521 388.919 250.249 389.42 250.057C389.922 249.854 390.46 249.753 391.036 249.753C391.612 249.753 392.151 249.854 392.652 250.057C393.154 250.249 393.586 250.521 393.948 250.873C394.322 251.225 394.61 251.646 394.812 252.137C395.026 252.617 395.132 253.15 395.132 253.737ZM393.564 253.737C393.564 253.374 393.506 253.028 393.388 252.697C393.282 252.366 393.122 252.078 392.908 251.833C392.695 251.577 392.428 251.374 392.108 251.225C391.799 251.076 391.442 251.001 391.036 251.001C390.631 251.001 390.268 251.076 389.948 251.225C389.639 251.374 389.378 251.577 389.164 251.833C388.951 252.078 388.786 252.366 388.668 252.697C388.562 253.028 388.508 253.374 388.508 253.737C388.508 254.1 388.562 254.446 388.668 254.777C388.786 255.108 388.951 255.401 389.164 255.657C389.378 255.913 389.639 256.116 389.948 256.265C390.268 256.414 390.631 256.489 391.036 256.489C391.442 256.489 391.799 256.414 392.108 256.265C392.428 256.116 392.695 255.913 392.908 255.657C393.122 255.401 393.282 255.108 393.388 254.777C393.506 254.446 393.564 254.1 393.564 253.737ZM404.93 251.193H402.914V255.145C402.914 255.604 402.999 255.934 403.17 256.137C403.341 256.329 403.613 256.425 403.986 256.425C404.125 256.425 404.274 256.409 404.434 256.377C404.594 256.345 404.738 256.297 404.866 256.233L404.914 257.465C404.733 257.529 404.53 257.577 404.306 257.609C404.093 257.652 403.869 257.673 403.634 257.673C402.919 257.673 402.37 257.476 401.986 257.081C401.613 256.686 401.426 256.094 401.426 255.305V251.193H399.97V249.961H401.426V247.785H402.914V249.961H404.93V251.193ZM408.052 251.113C408.233 250.74 408.542 250.42 408.98 250.153C409.417 249.886 409.908 249.753 410.452 249.753C410.942 249.753 411.364 249.838 411.716 250.009C412.068 250.169 412.361 250.388 412.596 250.665C412.83 250.942 413.001 251.268 413.108 251.641C413.225 252.014 413.284 252.414 413.284 252.841V257.545H411.78V253.353C411.78 253.044 411.753 252.75 411.7 252.473C411.657 252.196 411.572 251.95 411.444 251.737C411.316 251.524 411.14 251.353 410.916 251.225C410.702 251.097 410.42 251.033 410.068 251.033C409.47 251.033 408.98 251.262 408.596 251.721C408.212 252.169 408.02 252.772 408.02 253.529V257.545H406.516V245.449H408.02V251.113H408.052ZM417.347 257.545H415.843V249.961H417.347V257.545ZM417.603 247.225C417.603 247.502 417.502 247.732 417.299 247.913C417.107 248.094 416.873 248.185 416.595 248.185C416.318 248.185 416.083 248.094 415.891 247.913C415.699 247.721 415.603 247.492 415.603 247.225C415.603 246.948 415.699 246.718 415.891 246.537C416.083 246.345 416.318 246.249 416.595 246.249C416.873 246.249 417.107 246.345 417.299 246.537C417.502 246.718 417.603 246.948 417.603 247.225ZM424.064 251.881C423.893 251.604 423.653 251.38 423.344 251.209C423.035 251.028 422.688 250.937 422.304 250.937C422.133 250.937 421.963 250.958 421.792 251.001C421.621 251.033 421.467 251.092 421.328 251.177C421.2 251.252 421.093 251.353 421.008 251.481C420.933 251.598 420.896 251.748 420.896 251.929C420.896 252.249 421.04 252.489 421.328 252.649C421.616 252.798 422.048 252.937 422.624 253.065C422.987 253.15 423.323 253.252 423.632 253.369C423.941 253.486 424.208 253.636 424.432 253.817C424.667 253.988 424.848 254.196 424.976 254.441C425.104 254.686 425.168 254.974 425.168 255.305C425.168 255.753 425.083 256.132 424.912 256.441C424.741 256.75 424.512 257.006 424.224 257.209C423.947 257.401 423.627 257.54 423.264 257.625C422.901 257.71 422.528 257.753 422.144 257.753C421.568 257.753 421.003 257.641 420.448 257.417C419.904 257.193 419.451 256.852 419.088 256.393L420.16 255.481C420.363 255.78 420.64 256.03 420.992 256.233C421.355 256.436 421.749 256.537 422.176 256.537C422.368 256.537 422.549 256.521 422.72 256.489C422.901 256.446 423.061 256.382 423.2 256.297C423.349 256.212 423.467 256.1 423.552 255.961C423.637 255.822 423.68 255.646 423.68 255.433C423.68 255.081 423.509 254.82 423.168 254.649C422.837 254.478 422.347 254.318 421.696 254.169C421.44 254.105 421.179 254.03 420.912 253.945C420.656 253.849 420.421 253.721 420.208 253.561C419.995 253.401 419.819 253.204 419.68 252.969C419.552 252.724 419.488 252.425 419.488 252.073C419.488 251.668 419.568 251.321 419.728 251.033C419.899 250.734 420.117 250.494 420.384 250.313C420.651 250.121 420.955 249.982 421.296 249.897C421.637 249.801 421.989 249.753 422.352 249.753C422.896 249.753 423.419 249.86 423.92 250.073C424.432 250.286 424.827 250.596 425.104 251.001L424.064 251.881ZM436.389 251.881C436.229 251.636 435.989 251.433 435.669 251.273C435.349 251.102 435.008 251.017 434.645 251.017C434.251 251.017 433.899 251.092 433.589 251.241C433.291 251.39 433.035 251.593 432.821 251.849C432.608 252.094 432.443 252.382 432.325 252.713C432.219 253.044 432.165 253.39 432.165 253.753C432.165 254.116 432.219 254.462 432.325 254.793C432.443 255.124 432.608 255.417 432.821 255.673C433.035 255.918 433.296 256.116 433.605 256.265C433.915 256.414 434.267 256.489 434.661 256.489C435.045 256.489 435.392 256.414 435.701 256.265C436.021 256.116 436.283 255.913 436.485 255.657L437.493 256.569C437.173 256.942 436.773 257.236 436.293 257.449C435.813 257.652 435.269 257.753 434.661 257.753C434.075 257.753 433.531 257.657 433.029 257.465C432.539 257.273 432.112 257.006 431.749 256.665C431.387 256.313 431.099 255.892 430.885 255.401C430.683 254.91 430.581 254.361 430.581 253.753C430.581 253.156 430.683 252.612 430.885 252.121C431.088 251.63 431.371 251.209 431.733 250.857C432.096 250.505 432.523 250.233 433.013 250.041C433.515 249.849 434.053 249.753 434.629 249.753C435.163 249.753 435.691 249.86 436.213 250.073C436.747 250.286 437.168 250.596 437.477 251.001L436.389 251.881ZM446.664 253.737C446.664 254.324 446.557 254.862 446.344 255.353C446.141 255.844 445.853 256.27 445.48 256.633C445.117 256.985 444.685 257.262 444.184 257.465C443.682 257.657 443.144 257.753 442.568 257.753C441.992 257.753 441.453 257.657 440.952 257.465C440.45 257.262 440.018 256.985 439.656 256.633C439.293 256.27 439.005 255.844 438.792 255.353C438.589 254.862 438.488 254.324 438.488 253.737C438.488 253.15 438.589 252.617 438.792 252.137C439.005 251.646 439.293 251.225 439.656 250.873C440.018 250.521 440.45 250.249 440.952 250.057C441.453 249.854 441.992 249.753 442.568 249.753C443.144 249.753 443.682 249.854 444.184 250.057C444.685 250.249 445.117 250.521 445.48 250.873C445.853 251.225 446.141 251.646 446.344 252.137C446.557 252.617 446.664 253.15 446.664 253.737ZM445.096 253.737C445.096 253.374 445.037 253.028 444.92 252.697C444.813 252.366 444.653 252.078 444.44 251.833C444.226 251.577 443.96 251.374 443.64 251.225C443.33 251.076 442.973 251.001 442.568 251.001C442.162 251.001 441.8 251.076 441.48 251.225C441.17 251.374 440.909 251.577 440.696 251.833C440.482 252.078 440.317 252.366 440.2 252.697C440.093 253.028 440.039 253.374 440.039 253.737C440.039 254.1 440.093 254.446 440.2 254.777C440.317 255.108 440.482 255.401 440.696 255.657C440.909 255.913 441.17 256.116 441.48 256.265C441.8 256.414 442.162 256.489 442.568 256.489C442.973 256.489 443.33 256.414 443.64 256.265C443.96 256.116 444.226 255.913 444.44 255.657C444.653 255.401 444.813 255.108 444.92 254.777C445.037 254.446 445.096 254.1 445.096 253.737ZM454.093 257.545C454.072 257.353 454.056 257.14 454.045 256.905C454.034 256.66 454.029 256.457 454.029 256.297H453.997C453.805 256.702 453.48 257.049 453.021 257.337C452.573 257.614 452.072 257.753 451.517 257.753C451.026 257.753 450.6 257.673 450.237 257.513C449.885 257.353 449.592 257.134 449.357 256.857C449.133 256.569 448.962 256.238 448.845 255.865C448.738 255.492 448.685 255.092 448.685 254.665V249.961H450.189V254.153C450.189 254.462 450.21 254.761 450.253 255.049C450.306 255.326 450.397 255.572 450.525 255.785C450.653 255.998 450.829 256.169 451.053 256.297C451.277 256.425 451.565 256.489 451.917 256.489C452.525 256.489 453.016 256.265 453.389 255.817C453.762 255.358 453.949 254.75 453.949 253.993V249.961H455.453V255.913C455.453 256.116 455.458 256.377 455.469 256.697C455.48 257.017 455.496 257.3 455.517 257.545H454.093ZM458.062 251.593C458.062 251.39 458.056 251.129 458.046 250.809C458.035 250.489 458.019 250.206 457.998 249.961H459.422C459.443 250.153 459.459 250.377 459.47 250.633C459.48 250.878 459.486 251.081 459.486 251.241H459.534C459.747 250.793 460.056 250.436 460.462 250.169C460.878 249.892 461.342 249.753 461.854 249.753C462.088 249.753 462.286 249.774 462.446 249.817L462.382 251.209C462.168 251.156 461.939 251.129 461.694 251.129C461.331 251.129 461.016 251.198 460.75 251.337C460.483 251.465 460.259 251.641 460.078 251.865C459.907 252.089 459.779 252.35 459.694 252.649C459.608 252.937 459.566 253.241 459.566 253.561V257.545H458.062V251.593ZM467.955 251.881C467.784 251.604 467.544 251.38 467.235 251.209C466.925 251.028 466.579 250.937 466.195 250.937C466.024 250.937 465.853 250.958 465.683 251.001C465.512 251.033 465.357 251.092 465.219 251.177C465.091 251.252 464.984 251.353 464.899 251.481C464.824 251.598 464.787 251.748 464.787 251.929C464.787 252.249 464.931 252.489 465.219 252.649C465.507 252.798 465.939 252.937 466.515 253.065C466.877 253.15 467.213 253.252 467.523 253.369C467.832 253.486 468.099 253.636 468.323 253.817C468.557 253.988 468.739 254.196 468.867 254.441C468.995 254.686 469.059 254.974 469.059 255.305C469.059 255.753 468.973 256.132 468.803 256.441C468.632 256.75 468.403 257.006 468.115 257.209C467.837 257.401 467.517 257.54 467.155 257.625C466.792 257.71 466.419 257.753 466.035 257.753C465.459 257.753 464.893 257.641 464.339 257.417C463.795 257.193 463.341 256.852 462.979 256.393L464.051 255.481C464.253 255.78 464.531 256.03 464.883 256.233C465.245 256.436 465.64 256.537 466.067 256.537C466.259 256.537 466.44 256.521 466.611 256.489C466.792 256.446 466.952 256.382 467.091 256.297C467.24 256.212 467.357 256.1 467.443 255.961C467.528 255.822 467.571 255.646 467.571 255.433C467.571 255.081 467.4 254.82 467.059 254.649C466.728 254.478 466.237 254.318 465.587 254.169C465.331 254.105 465.069 254.03 464.803 253.945C464.547 253.849 464.312 253.721 464.099 253.561C463.885 253.401 463.709 253.204 463.571 252.969C463.443 252.724 463.379 252.425 463.379 252.073C463.379 251.668 463.459 251.321 463.618 251.033C463.789 250.734 464.008 250.494 464.275 250.313C464.541 250.121 464.845 249.982 465.187 249.897C465.528 249.801 465.88 249.753 466.243 249.753C466.787 249.753 467.309 249.86 467.811 250.073C468.323 250.286 468.717 250.596 468.995 251.001L467.955 251.881ZM476.52 253.081C476.509 252.782 476.456 252.505 476.36 252.249C476.275 251.982 476.141 251.753 475.96 251.561C475.789 251.369 475.571 251.22 475.304 251.113C475.048 250.996 474.744 250.937 474.392 250.937C474.072 250.937 473.768 250.996 473.48 251.113C473.203 251.22 472.957 251.369 472.744 251.561C472.541 251.753 472.371 251.982 472.232 252.249C472.104 252.505 472.029 252.782 472.008 253.081H476.52ZM478.04 253.689C478.04 253.774 478.04 253.86 478.04 253.945C478.04 254.03 478.035 254.116 478.024 254.201H472.008C472.019 254.521 472.088 254.825 472.216 255.113C472.355 255.39 472.536 255.636 472.76 255.849C472.984 256.052 473.24 256.212 473.528 256.329C473.827 256.446 474.141 256.505 474.472 256.505C474.984 256.505 475.427 256.393 475.8 256.169C476.173 255.945 476.467 255.673 476.68 255.353L477.736 256.201C477.331 256.734 476.851 257.129 476.296 257.385C475.752 257.63 475.144 257.753 474.472 257.753C473.896 257.753 473.363 257.657 472.872 257.465C472.381 257.273 471.96 257.006 471.608 256.665C471.256 256.313 470.979 255.892 470.776 255.401C470.573 254.91 470.472 254.366 470.472 253.769C470.472 253.182 470.568 252.644 470.76 252.153C470.963 251.652 471.24 251.225 471.592 250.873C471.944 250.521 472.36 250.249 472.84 250.057C473.32 249.854 473.837 249.753 474.392 249.753C474.947 249.753 475.448 249.844 475.896 250.025C476.355 250.206 476.739 250.468 477.048 250.809C477.368 251.15 477.613 251.566 477.784 252.057C477.955 252.537 478.04 253.081 478.04 253.689Z" fill="#222222"/>
</svg>
